<?xml version="1.0" encoding="iso-8859-1"?>
<!-- Generator: Adobe Illustrator 19.0.0, SVG Export Plug-In . SVG Version: 6.00 Build 0)  -->
<svg fill="#f0a70a" version="1.1" id="Layer_1" xmlns="http://www.w3.org/2000/svg" xmlns:xlink="http://www.w3.org/1999/xlink" x="0px" y="0px"
	 viewBox="0 0 512 512" style="enable-background:new 0 0 512 512;" xml:space="preserve">
<g>
	<g>
		<g>
			<path d="M423.232,0H88.768C78.423,0,70.037,8.387,70.037,18.732v474.537c0,10.345,8.387,18.732,18.732,18.732
				c14.351,0,313.426,0,334.463,0c10.345,0,18.732-8.387,18.732-18.732V18.732C441.963,8.387,433.577,0,423.232,0z M107.5,37.463
				h297V87.56h-297V37.463z M404.5,474.537h-48.209l48.209-48.209V474.537z M329.8,448.046v-48.209h48.209L329.8,448.046z
				 M404.5,362.374h-93.431c-10.345,0-18.732,8.387-18.732,18.732v93.431H107.5V125.023h297V362.374z"/>
			<path d="M164.674,195.084h182.652c10.345,0,18.732-8.387,18.732-18.732s-8.387-18.732-18.732-18.732H164.674
				c-10.345,0-18.732,8.387-18.732,18.732S154.329,195.084,164.674,195.084z"/>
			<path d="M164.674,262.43h182.652c10.345,0,18.732-8.387,18.732-18.732c0-10.345-8.387-18.732-18.732-18.732H164.674
				c-10.345,0-18.732,8.387-18.732,18.732C145.942,254.043,154.329,262.43,164.674,262.43z"/>
			<path d="M164.674,329.775h182.652c10.345,0,18.732-8.387,18.732-18.732s-8.387-18.732-18.732-18.732H164.674
				c-10.345,0-18.732,8.387-18.732,18.732S154.329,329.775,164.674,329.775z"/>
		</g>
	</g>
</g>
<g>
</g>
<g>
</g>
<g>
</g>
<g>
</g>
<g>
</g>
<g>
</g>
<g>
</g>
<g>
</g>
<g>
</g>
<g>
</g>
<g>
</g>
<g>
</g>
<g>
</g>
<g>
</g>
<g>
</g>
</svg>
